<?xml version="1.0" encoding="UTF-8" standalone="no"?>
<!-- Created with Inkscape (http://www.inkscape.org/) -->

<svg
   width="45.820724mm"
   height="45.820724mm"
   viewBox="0 0 45.820724 45.820724"
   version="1.1"
   id="svg1"
   inkscape:version="1.3.2 (091e20ef0f, 2023-11-25, custom)"
   sodipodi:docname="paper_new.svg"
   xmlns:inkscape="http://www.inkscape.org/namespaces/inkscape"
   xmlns:sodipodi="http://sodipodi.sourceforge.net/DTD/sodipodi-0.dtd"
   xmlns="http://www.w3.org/2000/svg"
   xmlns:svg="http://www.w3.org/2000/svg">
  <sodipodi:namedview
     id="namedview1"
     pagecolor="#ffffff"
     bordercolor="#000000"
     borderopacity="0.25"
     inkscape:showpageshadow="2"
     inkscape:pageopacity="0.0"
     inkscape:pagecheckerboard="0"
     inkscape:deskcolor="#d1d1d1"
     inkscape:document-units="mm"
     inkscape:zoom="6.9917569"
     inkscape:cx="9.2966618"
     inkscape:cy="140.45111"
     inkscape:window-width="1918"
     inkscape:window-height="1030"
     inkscape:window-x="0"
     inkscape:window-y="24"
     inkscape:window-maximized="1"
     inkscape:current-layer="layer1" />
  <defs
     id="defs1">
    <clipPath
       clipPathUnits="userSpaceOnUse"
       id="clipPath3447">
      <circle
         style="opacity:0.233013;fill:#d7f4d7;fill-opacity:1;stroke:#87de87;stroke-width:9.99998;stroke-linecap:round;stroke-linejoin:round;stroke-miterlimit:4;stroke-dasharray:none;stroke-opacity:1"
         id="use3449"
         cx="357.44205"
         cy="257.39975"
         r="300.54868" />
    </clipPath>
    <clipPath
       clipPathUnits="userSpaceOnUse"
       id="clipPath3447-3">
      <circle
         style="fill:#d7f4d7;fill-opacity:1;stroke:#87de87;stroke-width:9.99998;stroke-linecap:round;stroke-linejoin:round;stroke-miterlimit:4;stroke-dasharray:none;stroke-opacity:1"
         id="use3449-1"
         cx="357.44205"
         cy="257.39975"
         r="300.54868" />
    </clipPath>
  </defs>
  <g
     inkscape:label="Layer 1"
     inkscape:groupmode="layer"
     id="layer1"
     transform="translate(-23.283334,-98.424995)">
    <g
       transform="matrix(0.07498106,0,0,0.07498106,19.39226,102.03529)"
       id="g3479">
      <circle
         transform="matrix(0.874101,0,0,0.874101,467.716,442.147)"
         id="use3422"
         style="fill:#fff6d5;fill-opacity:1;stroke:#ffdd55;stroke-width:11.4403;stroke-linecap:round;stroke-linejoin:round;stroke-miterlimit:4;stroke-dasharray:none;stroke-opacity:1"
         cx="-126.15619"
         cy="-211.35745"
         r="343.83746" />
      <g
         id="g3260"
         clip-path="url(#clipPath3447-3)">
        <path
           sodipodi:nodetypes="cssssssscsssssscsscssscssssssssccccc"
           id="path3240"
           d="m 85.102222,390.2592 c 14.051679,-6.91093 27.238488,-13.59575 37.069728,-18.99223 3.66458,-2.01153 1.34229,-20.07516 4.75113,-27.82806 4.14446,-9.42596 32.70994,-94.84199 35.29411,-102.48868 0.69541,-2.05776 19.34528,-20.73662 35.10539,-41.18222 15.89999,-20.62707 25.8526,-38.87419 34.12538,-42.30194 8.12281,-3.36561 15.96066,-3.50771 29.72831,-7.28427 11.7828,-3.23209 21.09792,-8.53713 25.24907,-10.36279 7.42048,-3.2635 17.86564,-6.90209 25.11312,-4.07241 6.69367,2.61345 4.09312,8.33052 5.42987,14.93213 7.058,-7.51791 17.77959,-14.67507 26.58885,-22.26069 8.69252,-7.48509 15.46945,-15.40522 22.95866,-21.85695 6.971,-6.0053 17.08572,-12.548539 25.25685,-19.515159 7.36434,-6.278765 12.76772,-13.028849 19.53953,-17.815162 12.37634,-8.747592 32.77047,-23.627715 47.51131,-27.149321 10.9695,-2.620627 20.23379,1.088039 25.79186,14.253394 1.7797,4.215558 -1.82079,12.629407 -4.0724,16.968325 19.83327,-13.383608 21.84504,-20.581851 31.90045,-23.755656 19.1723,-6.051386 28.2747,3.798034 29.86426,19.004525 1.25981,12.051952 -11.27703,24.423442 -21.71946,34.615384 17.20168,-12.160004 30.34861,6.16958 31.22171,20.36199 0.39409,6.40589 -4.19344,11.50598 -8.65748,17.76434 -5.83493,8.18028 -11.4146,17.8303 -15.7769,24.99584 -9.46434,15.54618 -6.39366,8.2988 -40.72399,54.29865 30.84537,-25.77518 29.76032,-35.98022 42.76019,-36.65159 9.20701,-0.47549 11.64228,6.09034 14.25339,14.93213 3.35279,11.35329 -9.23797,30.74777 -15.61086,40.72398 -11.77809,18.43759 -31.5112,40.17085 -45.47511,57.01357 -11.15009,13.4488 -27.3052,30.31104 -38.00905,44.11765 -10.48643,13.52617 -20.12157,35.09673 -32.57919,46.83258 -45.76866,43.1169 -116.39515,105.26583 -152.0362,118.09955 -11.84319,4.26453 -27.29666,11.0361 -44.22348,19.04432 C 195.59363,513.66111 189.0566,509.53036 174.76293,499.21696 158.12692,485.59739 147.90139,476.51069 136.15919,464.41137 122.08475,448.46016 115.55098,439.65782 108.78406,430.15328 98.974438,415.6096 93.502892,406.18084 85.102222,390.2592 Z"
           style="fill:#ffffff;fill-opacity:1;stroke:#000000;stroke-width:3.52866;stroke-linecap:round;stroke-linejoin:round;stroke-miterlimit:4;stroke-dasharray:none;stroke-opacity:1"
           inkscape:connector-curvature="0" />
        <path
           sodipodi:nodetypes="ccc"
           id="path3242"
           d="m 481.90045,71.945701 -75.28084,67.937029 c -22.21975,22.09427 -45.32202,49.4836 -65.89563,61.70098"
           style="fill:#ffffff;fill-opacity:0.166667;stroke:#000000;stroke-width:3.52866;stroke-linecap:round;stroke-linejoin:round;stroke-miterlimit:4;stroke-dasharray:none;stroke-opacity:1"
           inkscape:connector-curvature="0" />
        <path
           sodipodi:nodetypes="ccc"
           id="path3244"
           d="m 521.26697,103.16742 c -23.39259,26.29618 -43.08479,50.74216 -73.03649,80.31789 -18.25659,24.34224 -48.60535,39.51436 -57.28025,58.14365"
           style="fill:#ffffff;fill-opacity:0.166667;stroke:#000000;stroke-width:3.52866;stroke-linecap:round;stroke-linejoin:round;stroke-miterlimit:4;stroke-dasharray:none;stroke-opacity:1"
           inkscape:connector-curvature="0" />
        <path
           sodipodi:nodetypes="cc"
           id="path3246"
           d="M 488.68778,218.55204 C 455.2875,262.51052 442.53334,254.86719 411.31222,310.181"
           style="fill:#ffffff;fill-opacity:0.166667;stroke:#000000;stroke-width:3.52866;stroke-linecap:round;stroke-linejoin:round;stroke-miterlimit:4;stroke-dasharray:none;stroke-opacity:1"
           inkscape:connector-curvature="0" />
        <path
           sodipodi:nodetypes="ccc"
           id="path3248"
           d="M 173.75566,255.20362 C 220.74163,211.79031 268.71286,193.03345 316.96833,150 v 0"
           style="fill:#ffffff;fill-opacity:0.166667;stroke:#000000;stroke-width:3.52866;stroke-linecap:round;stroke-linejoin:round;stroke-miterlimit:4;stroke-dasharray:none;stroke-opacity:1"
           inkscape:connector-curvature="0" />
      </g>
    </g>
  </g>
</svg>
