<?xml version="1.0" encoding="UTF-8"?>
<!-- Created with Inkscape (http://www.inkscape.org/) -->
<svg width="45.821mm" height="45.821mm" version="1.1" viewBox="0 0 45.821 45.821" xmlns="http://www.w3.org/2000/svg">
 <defs>
  <clipPath id="clipPath3441">
   <circle cx="963.49" cy="257.4" r="300.55" fill="#d7f4d7" stroke="#87de87" stroke-linecap="round" stroke-linejoin="round" stroke-width="10"/>
  </clipPath>
 </defs>
 <g transform="translate(-.26458 -.26458)">
  <g transform="matrix(.074981 0 0 .074981 -49.068 3.8749)" stroke-linecap="round" stroke-linejoin="round">
   <circle transform="matrix(.8741 0 0 .8741 1073.8 442.15)" cx="-126.16" cy="-211.36" r="343.84" fill="#f6d5ff" stroke="#e580ff" stroke-width="11.44"/>
   <g clip-path="url(#clipPath3441)" fill="#fff" stroke="#000" stroke-width="3.5287">
    <path d="m612.22 428.28c0.54519-1.1994 108.59-50.117 134.39-65.158 4.3797-2.5536 70.177-99.083 114.03-143.89 6.1906-6.3259 8.319-17.035 14.567-26.493 5.0742-7.6818 14.482-14.077 18.012-20.339 12.433-22.054 24.368-53.88 36.652-76.018 7.9483-14.325 20.1-32.522 29.186-46.154 7.8637-11.799 21.593-33.709 31.222-44.118 10.471-11.32 31.82-13.356 35.294 8.8235 2.0165 12.873-15.315 38.872-22.398 54.977-6.3511 14.44-15.408 33.455-21.041 48.19-3.7624 9.8426-6.5305 21.516-10.763 33.293-3.863 10.748-9.3992 21.582-8.9202 31.187 0.29969 6.0088 2.0534 13.934 6.7873 17.647 5.5855 4.3807 41.609-30.218 67.195-41.403 12.495-5.462 24.673-14.557 48.19-25.113 9.4321-4.2336 20.588-12.403 29.864-16.968 8.9595-4.4093 31.522-12.81 41.403-14.253 13.105-1.914 26.539 14.673 21.041 29.186-1.9597 5.1721-31.899 22.237-45.475 31.9-18.416 13.109-44.667 28.58-61.086 44.118-20.764 19.649-65.033 33.925-70.588 44.796-0.87411 1.7105 1.6618 4.5986 3.3936 5.4299 3.1421 1.5083 8.1442-2.1492 11.538-1.3575 8.7453 2.0399 19.378 9.3793 25.113 16.29 16.601 20.003-4.4227 36.618-8.1448 46.833-1.33 3.6499 9.7371 9.8743 10.86 21.719 1.0472 11.05-3.831 22.836-11.538 29.186-9.4346 7.7727-27.464 10.975-35.294 20.362-1.9391 2.3244-1.0553 7.58-3.3937 9.5023-27.371 22.5-49.287 42.792-70.588 58.371-20.96 15.329-60.002 39.014-71.267 37.33-6.382-0.95369-44.359 24.563-83.484 42.081-23.777 10.647-73.982 45.475-73.982 45.475z"/>
    <path d="m1032.4 322.4c-6.7999-9.806-20.29-13.714-21.041-19.005" fill-opacity=".060898"/>
    <path d="m1003.8 382.81 9.5022-8.1448 12.217-3.3937" fill-opacity=".060898"/>
   </g>
  </g>
 </g>
</svg>
